# xmcd CD database file
# Copyright (C) 1997 Ti Kan
# 
# Track frame offsets:
#     150
#     11055
#     29308
#     47240
#     62165
#     81475
#     96425
#     110575
#     125200
#     141100
#     155313
#     166600
#     180625
#     198503
#     212550
# 
# Disc length: 3057 seconds
# 
# Revision: 1
# Processed by: cddbd v1.4b41PL1 Copyright (c) Steve Scherf et al.
# Submitted via: DiscPlay 4.0.3
# 
DISCID=d50bef0f
DTITLE=Lyle Lovett - Here He Is
DYEAR=1900
DGENRE=
TTITLE0=Blues Walk
TTITLE1=Here I Am
TTITLE2=Black and Blue
TTITLE3=L.A. County
TTITLE4=This Old Porch
TTITLE5=Simple Song
TTITLE6=If I Had A Boat
TTITLE7=She's No Lady
TTITLE8=Wedding Song
TTITLE9=Can't Resist It
TTITLE10=Cryin' Shame
TTITLE11=What Do You Do
TTITLE12=If I Was The Man You Wanted
TTITLE13=Nobody Knows Me
TTITLE14=Closing Time
EXTD=
EXTT0=
EXTT1=
EXTT2=
EXTT3=
EXTT4=
EXTT5=
EXTT6=
EXTT7=
EXTT8=
EXTT9=
EXTT10=
EXTT11=
EXTT12=
EXTT13=
EXTT14=
PLAYORDER=
